<svg id="handle" xmlns="http://www.w3.org/2000/svg" width="512" height="512" viewBox="0 0 512 512">
  <ellipse id="Ellipse_2" data-name="Ellipse 2" cx="255.288" cy="256" rx="255.288" ry="256" fill="#d1d1d1"/>
  <path id="Path_5" data-name="Path 5" d="M241.115,127.9l-72.7,246.451L344.168,496.411C418.156,469.268,502.063,392.99,513.423,272.28Z" transform="translate(-1.423)" fill="#a6a6a6"/>
  <path id="Path_6" data-name="Path 6" d="M194.24-192q38.72,0,38.72,38.72,0,16.64-9.44,56.32t-9.44,59.84q0,20.16,6.72,29.44Q203.84,8,184.96,8q-36.8,0-36.8-39.68,0-14.72,9.6-49.92t9.6-45.76q0-14.4-10.88-14.4-8.96,0-20.48,7.84a104.908,104.908,0,0,0-22.24,21.12Q103.04-99.52,95.68-79.2a120.387,120.387,0,0,0-7.36,41.28q0,20.96,6.72,30.24Q78.08,8,59.2,8,22.4,8,22.4-31.68q0-23.68,12.8-96,10.88-63.68,12.48-71.36l-17.92-25.6Q69.76-248,92.8-248q13.12,0,18.56,5.28t5.44,17.44a310.689,310.689,0,0,1-4.48,50.24q-4.48,27.2-8.32,40l3.2,1.6Q141.44-192,194.24-192Z" transform="translate(132.289 373)" fill="#3b3b3b"/>
</svg>
